<svg width="281" height="281" viewBox="0 0 281 281" fill="none" xmlns="http://www.w3.org/2000/svg">
<circle cx="140.5" cy="140.5" r="140.5" fill="black"/>
<path d="M132.8 133.8C164.2 128.2 177 117 177 100C177 77.8 153.6 67 114.2 67H42L59.8 77.8V207.8H43.8V211H124C160.4 211 185.2 195.8 185.2 172.2C185.2 149.6 164.2 135.8 132.8 133.8ZM107 70.2C125.6 70.2 131 84.2 131 101.4C131 121.8 123.6 132.6 107.4 132.6H103.8V70.2H107ZM108 207.8H103.8V135.8H109.4C126.2 135.8 139.2 148 139.2 172.8C139.2 196.2 130.2 207.8 108 207.8ZM217.497 214C229.097 214 236.697 206.6 236.697 194.6C236.697 182.6 229.097 175.2 217.497 175.2C205.897 175.2 198.297 182.6 198.297 194.6C198.297 206.6 205.897 214 217.497 214Z" fill="#FDCE00"/>
<ellipse cx="71.5" cy="61.5" rx="5.5" ry="12.5" fill="#FDCE00"/>
<ellipse cx="87.5" cy="61.5" rx="5.5" ry="12.5" fill="#FDCE00"/>
</svg>
