<svg width="1019" height="348" viewBox="0 0 1019 348" fill="none" xmlns="http://www.w3.org/2000/svg">
<path d="M14.8635 340.526L14.7535 340.416L9.27552 327.7H8.10952L2.85152 340.416L2.74152 340.526H1.53152V342H5.99752V340.526H4.67752L4.56752 340.416L5.46952 338.084H10.7715L11.7615 340.416L11.6515 340.526H10.3315V342H16.0295V340.526H14.8635ZM6.04152 336.588L7.95552 331.66H8.06552L10.1555 336.588H6.04152ZM26.3317 332.76V333.046L27.6737 334.256L25.9577 338.854H25.8477L23.8237 332.518L21.3377 333.244L22.3937 335.95L20.6997 339.008H20.5897L18.6757 334.278L19.9957 333.046V332.76H14.5837V333.068L15.9257 334.278L19.4457 342.22H20.3477L22.9877 337.49L24.8357 342.22H25.8037L29.2137 334.278L30.6217 333.046V332.76H26.3317ZM38.3045 340.592L38.1945 340.482V336.192C38.1945 333.75 37.2705 332.43 34.9605 332.43C33.4645 332.43 32.2325 332.98 31.1545 334.058L31.5725 334.894C32.3645 334.388 33.1125 334.08 33.8825 334.08C35.1585 334.08 35.6645 334.85 35.6645 336.346V336.742C31.8585 337.138 30.7585 338.414 30.7585 340.064C30.7585 341.692 31.8805 342.242 32.9365 342.242C33.8385 342.242 34.7625 341.846 35.6645 341.23V342H39.2945V340.592H38.3045ZM34.4765 340.658C33.7285 340.658 33.2005 340.284 33.2225 339.448C33.2445 338.458 33.9485 337.974 35.6645 337.82V340.46C35.2465 340.57 34.8505 340.658 34.4765 340.658ZM43.9061 340.482V326.314L43.5981 326.16L39.9681 327.92V328.184L41.3761 329.064V340.482L41.2661 340.592H40.2761V342H45.0061V340.592H44.0161L43.9061 340.482ZM49.5821 340.592L46.6121 336.412L50.5061 332.826V332.65H45.6441V332.848L46.8981 334.08L44.0821 337.072L47.4701 342H50.9461V340.592H49.5821ZM57.0616 340.724C55.2576 340.724 54.2456 339.426 54.0916 337.314H59.5476C59.6356 336.83 59.6576 336.522 59.6576 336.126C59.6576 333.948 58.2716 332.43 56.0276 332.43C53.3216 332.43 51.3856 334.652 51.3856 337.49C51.3856 340.372 53.4096 342.22 56.0276 342.22C57.4136 342.22 58.5796 341.714 59.5696 340.944L59.1516 340.174C58.3816 340.548 57.7216 340.724 57.0616 340.724ZM55.7196 333.706C56.6216 333.706 57.1716 334.322 57.2156 336.17H54.0916C54.1796 334.564 54.7516 333.706 55.7196 333.706ZM70.5622 340.614L70.4522 340.482V335.004C70.4522 333.2 69.3522 332.43 67.7902 332.43C66.6022 332.43 65.6782 332.892 64.3802 333.75L64.1162 332.452L63.8302 332.298L60.5302 333.992V334.278L61.9382 335.136V340.482L61.8282 340.592H60.8382V342H65.5682V340.592H64.5782L64.4682 340.482V334.586C65.1502 334.41 65.6782 334.322 66.1622 334.322C67.4162 334.322 67.9222 334.806 67.9222 336.566V340.482L67.8122 340.592H66.8222V342H71.5522V340.614H70.5622ZM74.8336 342.33C75.7576 342.33 76.4836 341.582 76.4836 340.68C76.4836 339.778 75.7576 339.03 74.8336 339.03C73.9316 339.03 73.1836 339.778 73.1836 340.68C73.1836 341.582 73.9316 342.33 74.8336 342.33Z" fill="#FDCE00"/>
<path d="M119.256 337.556L117.474 340.46H112.964V335.312H115.516L115.626 335.422V337.094H117.034V332.012H115.626V333.662L115.516 333.772H112.964V329.24H117.1L118.794 332.144H119.212V327.7H108.234V328.03L110.214 329.35V340.416L110.104 340.526H108.454V342H119.608L119.674 337.556H119.256ZM129.01 340.592L128.9 340.482V336.192C128.9 333.75 127.976 332.43 125.666 332.43C124.17 332.43 122.938 332.98 121.86 334.058L122.278 334.894C123.07 334.388 123.818 334.08 124.588 334.08C125.864 334.08 126.37 334.85 126.37 336.346V336.742C122.564 337.138 121.464 338.414 121.464 340.064C121.464 341.692 122.586 342.242 123.642 342.242C124.544 342.242 125.468 341.846 126.37 341.23V342H130V340.592H129.01ZM125.182 340.658C124.434 340.658 123.906 340.284 123.928 339.448C123.95 338.458 124.654 337.974 126.37 337.82V340.46C125.952 340.57 125.556 340.658 125.182 340.658ZM134.347 342.22C135.601 342.22 136.811 341.67 137.647 340.944L137.229 340.174C136.723 340.438 136.107 340.658 135.601 340.658C134.721 340.658 134.391 340.042 134.391 338.282V334.168H137.317V332.76H134.391V330.142H134.105L130.519 333.882V334.168H131.751L131.861 334.278V339.338C131.861 341.45 132.763 342.22 134.347 342.22ZM140.681 342.33C141.605 342.33 142.331 341.582 142.331 340.68C142.331 339.778 141.605 339.03 140.681 339.03C139.779 339.03 139.031 339.778 139.031 340.68C139.031 341.582 139.779 342.33 140.681 342.33Z" fill="white"/>
<path d="M181.565 342.33C183.347 342.33 185.019 341.912 186.141 341.274V336.984H185.811L184.315 339.844C183.699 340.438 182.819 340.922 181.543 340.922C179.145 340.922 177.451 338.634 177.451 334.784C177.451 330.978 178.903 328.756 181.367 328.756C182.643 328.756 183.391 329.108 184.095 329.768L185.547 332.298H185.877V328.008C184.623 327.59 183.391 327.37 181.961 327.37C177.935 327.37 174.371 330.054 174.371 335.224C174.371 339.712 177.649 342.33 181.565 342.33ZM192.323 342.22C195.117 342.22 197.119 340.196 197.119 337.204C197.119 334.212 195.161 332.43 192.587 332.43C189.727 332.43 187.791 334.652 187.791 337.556C187.791 340.372 189.639 342.22 192.323 342.22ZM192.763 340.922C191.443 340.922 190.475 339.162 190.475 336.654C190.475 334.85 191.113 333.794 192.147 333.794C193.467 333.794 194.435 335.554 194.435 338.062C194.435 339.866 193.797 340.922 192.763 340.922ZM208.149 340.614L208.039 340.482V335.004C208.039 333.2 206.939 332.43 205.377 332.43C204.189 332.43 203.265 332.892 201.967 333.75L201.703 332.452L201.417 332.298L198.117 333.992V334.278L199.525 335.136V340.482L199.415 340.592H198.425V342H203.155V340.592H202.165L202.055 340.482V334.586C202.737 334.41 203.265 334.322 203.749 334.322C205.003 334.322 205.509 334.806 205.509 336.566V340.482L205.399 340.592H204.409V342H209.139V340.614H208.149ZM213.499 342.22C214.753 342.22 215.963 341.67 216.799 340.944L216.381 340.174C215.875 340.438 215.259 340.658 214.753 340.658C213.873 340.658 213.543 340.042 213.543 338.282V334.168H216.469V332.76H213.543V330.142H213.257L209.671 333.882V334.168H210.903L211.013 334.278V339.338C211.013 341.45 211.915 342.22 213.499 342.22ZM223.094 340.724C221.29 340.724 220.278 339.426 220.124 337.314H225.58C225.668 336.83 225.69 336.522 225.69 336.126C225.69 333.948 224.304 332.43 222.06 332.43C219.354 332.43 217.418 334.652 217.418 337.49C217.418 340.372 219.442 342.22 222.06 342.22C223.446 342.22 224.612 341.714 225.602 340.944L225.184 340.174C224.414 340.548 223.754 340.724 223.094 340.724ZM221.752 333.706C222.654 333.706 223.204 334.322 223.248 336.17H220.124C220.212 334.564 220.784 333.706 221.752 333.706ZM242.138 340.592L242.028 340.482V335.114C242.028 333.464 241.148 332.43 239.454 332.43C238.222 332.43 237.342 332.98 236.044 333.838C235.67 332.958 234.878 332.43 233.668 332.43C232.546 332.43 231.644 332.936 230.412 333.75L230.148 332.452L229.862 332.298L226.562 333.992V334.278L227.97 335.136V340.482L227.86 340.592H226.87V342H231.6V340.592H230.61L230.5 340.482V334.586C231.072 334.432 231.666 334.322 232.348 334.322C233.316 334.322 233.756 334.872 233.756 336.566V340.482L233.646 340.592H232.656V342H237.386V340.592H236.396L236.286 340.482V335.158C236.286 334.938 236.264 334.74 236.242 334.542L236.264 334.586C236.836 334.432 237.43 334.322 238.112 334.322C239.058 334.322 239.498 334.872 239.498 336.566V340.482L239.388 340.592H238.398V342H243.128V340.592H242.138ZM250.787 332.43C249.665 332.43 248.741 333.024 247.685 333.838L247.399 332.474L247.113 332.32L243.813 334.014V334.3L245.221 335.158V345.542L245.111 345.652H244.121V347.06H249.181V345.652H247.861L247.751 345.542V341.89C248.235 342.11 248.785 342.22 249.401 342.22C252.173 342.22 254.153 339.954 254.153 337.05C254.153 334.322 252.723 332.43 250.787 332.43ZM249.489 340.9C248.741 340.9 248.125 340.504 247.751 339.844V334.52C248.323 334.388 248.763 334.322 249.313 334.322C250.611 334.322 251.469 335.444 251.469 337.644C251.469 339.646 250.809 340.9 249.489 340.9ZM255.486 342H260.216V340.592H259.226L259.116 340.482V326.314L258.808 326.16L255.178 327.92V328.184L256.586 329.064V340.482L256.476 340.592H255.486V342ZM268.833 340.592L268.723 340.482V336.192C268.723 333.75 267.799 332.43 265.489 332.43C263.993 332.43 262.761 332.98 261.683 334.058L262.101 334.894C262.893 334.388 263.641 334.08 264.411 334.08C265.687 334.08 266.193 334.85 266.193 336.346V336.742C262.387 337.138 261.287 338.414 261.287 340.064C261.287 341.692 262.409 342.242 263.465 342.242C264.367 342.242 265.291 341.846 266.193 341.23V342H269.823V340.592H268.833ZM265.005 340.658C264.257 340.658 263.729 340.284 263.751 339.448C263.773 338.458 264.477 337.974 266.193 337.82V340.46C265.775 340.57 265.379 340.658 265.005 340.658ZM274.17 342.22C275.424 342.22 276.634 341.67 277.47 340.944L277.052 340.174C276.546 340.438 275.93 340.658 275.424 340.658C274.544 340.658 274.214 340.042 274.214 338.282V334.168H277.14V332.76H274.214V330.142H273.928L270.342 333.882V334.168H271.574L271.684 334.278V339.338C271.684 341.45 272.586 342.22 274.17 342.22ZM283.766 340.724C281.962 340.724 280.95 339.426 280.796 337.314H286.252C286.34 336.83 286.362 336.522 286.362 336.126C286.362 333.948 284.976 332.43 282.732 332.43C280.026 332.43 278.09 334.652 278.09 337.49C278.09 340.372 280.114 342.22 282.732 342.22C284.118 342.22 285.284 341.714 286.274 340.944L285.856 340.174C285.086 340.548 284.426 340.724 283.766 340.724ZM282.424 333.706C283.326 333.706 283.876 334.322 283.92 336.17H280.796C280.884 334.564 281.456 333.706 282.424 333.706ZM289.764 342.33C290.688 342.33 291.414 341.582 291.414 340.68C291.414 339.778 290.688 339.03 289.764 339.03C288.862 339.03 288.114 339.778 288.114 340.68C288.114 341.582 288.862 342.33 289.764 342.33Z" fill="#FDCE00"/>
<path d="M328.823 336.544C332.057 336.544 334.829 334.894 334.829 331.77C334.829 329.064 332.673 327.7 328.911 327.7H322.795V328.03L324.775 329.35V340.416L324.665 340.526H323.015V342H329.505V340.526H327.635L327.525 340.416V336.544H328.823ZM328.691 329.24C330.539 329.24 331.881 330.12 331.881 331.968C331.881 333.794 330.583 335.004 328.669 335.004H327.525V329.24H328.691ZM336.068 342H340.798V340.592H339.808L339.698 340.482V326.314L339.39 326.16L335.76 327.92V328.184L337.168 329.064V340.482L337.058 340.592H336.068V342ZM349.415 340.592L349.305 340.482V336.192C349.305 333.75 348.381 332.43 346.071 332.43C344.575 332.43 343.343 332.98 342.265 334.058L342.683 334.894C343.475 334.388 344.223 334.08 344.993 334.08C346.269 334.08 346.775 334.85 346.775 336.346V336.742C342.969 337.138 341.869 338.414 341.869 340.064C341.869 341.692 342.991 342.242 344.047 342.242C344.949 342.242 345.873 341.846 346.775 341.23V342H350.405V340.592H349.415ZM345.587 340.658C344.839 340.658 344.311 340.284 344.333 339.448C344.355 338.458 345.059 337.974 346.775 337.82V340.46C346.357 340.57 345.961 340.658 345.587 340.658ZM353.773 347.39L356.281 342.484L360.131 334.278L361.539 333.046V332.76H357.381V333.068L358.591 334.278L356.523 338.964H356.391L354.345 334.278L355.577 333.046V332.76H350.165V333.068L351.595 334.278L355.313 342.176L350.825 345.982V346.18L353.773 347.39ZM365.258 342.22C366.512 342.22 367.722 341.67 368.558 340.944L368.14 340.174C367.634 340.438 367.018 340.658 366.512 340.658C365.632 340.658 365.302 340.042 365.302 338.282V334.168H368.228V332.76H365.302V330.142H365.016L361.43 333.882V334.168H362.662L362.772 334.278V339.338C362.772 341.45 363.674 342.22 365.258 342.22ZM371.702 330.692C372.538 330.692 373.22 330.01 373.22 329.152C373.22 328.316 372.538 327.634 371.702 327.634C370.844 327.634 370.162 328.316 370.162 329.152C370.162 330.01 370.844 330.692 371.702 330.692ZM369.414 342H374.144V340.592H373.154L373.044 340.482V332.408L372.758 332.276L369.106 334.014V334.278L370.514 335.158V340.482L370.404 340.592H369.414V342ZM390.375 340.592L390.265 340.482V335.114C390.265 333.464 389.385 332.43 387.691 332.43C386.459 332.43 385.579 332.98 384.281 333.838C383.907 332.958 383.115 332.43 381.905 332.43C380.783 332.43 379.881 332.936 378.649 333.75L378.385 332.452L378.099 332.298L374.799 333.992V334.278L376.207 335.136V340.482L376.097 340.592H375.107V342H379.837V340.592H378.847L378.737 340.482V334.586C379.309 334.432 379.903 334.322 380.585 334.322C381.553 334.322 381.993 334.872 381.993 336.566V340.482L381.883 340.592H380.893V342H385.623V340.592H384.633L384.523 340.482V335.158C384.523 334.938 384.501 334.74 384.479 334.542L384.501 334.586C385.073 334.432 385.667 334.322 386.349 334.322C387.295 334.322 387.735 334.872 387.735 336.566V340.482L387.625 340.592H386.635V342H391.365V340.592H390.375ZM398.121 340.724C396.317 340.724 395.305 339.426 395.151 337.314H400.607C400.695 336.83 400.717 336.522 400.717 336.126C400.717 333.948 399.331 332.43 397.087 332.43C394.381 332.43 392.445 334.652 392.445 337.49C392.445 340.372 394.469 342.22 397.087 342.22C398.473 342.22 399.639 341.714 400.629 340.944L400.211 340.174C399.441 340.548 398.781 340.724 398.121 340.724ZM396.779 333.706C397.681 333.706 398.231 334.322 398.275 336.17H395.151C395.239 334.564 395.811 333.706 396.779 333.706ZM404.12 342.33C405.044 342.33 405.77 341.582 405.77 340.68C405.77 339.778 405.044 339.03 404.12 339.03C403.218 339.03 402.47 339.778 402.47 340.68C402.47 341.582 403.218 342.33 404.12 342.33Z" fill="white"/>
<path d="M441.529 342.33C444.763 342.33 446.479 340.438 446.479 338.04C446.479 336.258 445.555 335.092 442.585 333.53C440.253 332.298 439.637 331.66 439.637 330.648C439.637 329.526 440.473 328.844 441.529 328.844C442.607 328.844 443.201 329.196 443.685 329.724L445.335 332.43H445.665V328.294C444.631 327.722 443.377 327.37 442.101 327.37C439.351 327.37 437.327 328.932 437.327 331.462C437.327 333.508 438.625 334.806 440.979 335.972C443.553 337.248 444.169 337.996 444.169 338.986C444.169 340.196 443.311 340.834 441.947 340.834C440.869 340.834 439.945 340.438 438.933 339.338L437.657 336.874H437.283V341.186C438.537 341.89 439.989 342.33 441.529 342.33ZM448.033 342H452.763V340.592H451.773L451.663 340.482V326.314L451.355 326.16L447.725 327.92V328.184L449.133 329.064V340.482L449.023 340.592H448.033V342ZM459.598 340.724C457.794 340.724 456.782 339.426 456.628 337.314H462.084C462.172 336.83 462.194 336.522 462.194 336.126C462.194 333.948 460.808 332.43 458.564 332.43C455.858 332.43 453.922 334.652 453.922 337.49C453.922 340.372 455.946 342.22 458.564 342.22C459.95 342.22 461.116 341.714 462.106 340.944L461.688 340.174C460.918 340.548 460.258 340.724 459.598 340.724ZM458.256 333.706C459.158 333.706 459.708 334.322 459.752 336.17H456.628C456.716 334.564 457.288 333.706 458.256 333.706ZM469.072 340.724C467.268 340.724 466.256 339.426 466.102 337.314H471.558C471.646 336.83 471.668 336.522 471.668 336.126C471.668 333.948 470.282 332.43 468.038 332.43C465.332 332.43 463.396 334.652 463.396 337.49C463.396 340.372 465.42 342.22 468.038 342.22C469.424 342.22 470.59 341.714 471.58 340.944L471.162 340.174C470.392 340.548 469.732 340.724 469.072 340.724ZM467.73 333.706C468.632 333.706 469.182 334.322 469.226 336.17H466.102C466.19 334.564 466.762 333.706 467.73 333.706ZM479.449 332.43C478.327 332.43 477.403 333.024 476.347 333.838L476.061 332.474L475.775 332.32L472.475 334.014V334.3L473.883 335.158V345.542L473.773 345.652H472.783V347.06H477.843V345.652H476.523L476.413 345.542V341.89C476.897 342.11 477.447 342.22 478.063 342.22C480.835 342.22 482.815 339.954 482.815 337.05C482.815 334.322 481.385 332.43 479.449 332.43ZM478.151 340.9C477.403 340.9 476.787 340.504 476.413 339.844V334.52C476.985 334.388 477.425 334.322 477.975 334.322C479.273 334.322 480.131 335.444 480.131 337.644C480.131 339.646 479.471 340.9 478.151 340.9ZM486.006 342.33C486.93 342.33 487.656 341.582 487.656 340.68C487.656 339.778 486.93 339.03 486.006 339.03C485.104 339.03 484.356 339.778 484.356 340.68C484.356 341.582 485.104 342.33 486.006 342.33Z" fill="white"/>
<path d="M523.411 342.33C526.645 342.33 528.361 340.438 528.361 338.04C528.361 336.258 527.437 335.092 524.467 333.53C522.135 332.298 521.519 331.66 521.519 330.648C521.519 329.526 522.355 328.844 523.411 328.844C524.489 328.844 525.083 329.196 525.567 329.724L527.217 332.43H527.547V328.294C526.513 327.722 525.259 327.37 523.983 327.37C521.233 327.37 519.209 328.932 519.209 331.462C519.209 333.508 520.507 334.806 522.861 335.972C525.435 337.248 526.051 337.996 526.051 338.986C526.051 340.196 525.193 340.834 523.829 340.834C522.751 340.834 521.827 340.438 520.815 339.338L519.539 336.874H519.165V341.186C520.419 341.89 521.871 342.33 523.411 342.33ZM539.705 340.614L539.595 340.482V335.004C539.595 333.2 538.495 332.43 536.933 332.43C535.745 332.43 534.821 332.892 533.523 333.75L533.259 332.452L532.973 332.298L529.673 333.992V334.278L531.081 335.136V340.482L530.971 340.592H529.981V342H534.711V340.592H533.721L533.611 340.482V334.586C534.293 334.41 534.821 334.322 535.305 334.322C536.559 334.322 537.065 334.806 537.065 336.566V340.482L536.955 340.592H535.965V342H540.695V340.614H539.705ZM544.086 330.692C544.922 330.692 545.604 330.01 545.604 329.152C545.604 328.316 544.922 327.634 544.086 327.634C543.228 327.634 542.546 328.316 542.546 329.152C542.546 330.01 543.228 330.692 544.086 330.692ZM541.798 342H546.528V340.592H545.538L545.428 340.482V332.408L545.142 332.276L541.49 334.014V334.278L542.898 335.158V340.482L542.788 340.592H541.798V342ZM559.349 326.226C558.051 326.226 557.039 326.578 556.313 327.37C555.213 326.842 554.289 326.556 553.167 326.556C550.637 326.556 548.657 328.096 548.657 332.276V332.65L548.547 332.76H547.557V334.168H548.547L548.657 334.3V340.482L548.547 340.592H547.557V342H552.287V340.592H551.297L551.187 340.482V334.3L551.297 334.168H554.927L555.037 334.3V340.482L554.927 340.592H553.937V342H559.107V340.592H557.677L557.567 340.482V334.3L557.677 334.168H560.251V332.76H557.677L557.567 332.65V329.658C557.567 328.228 557.941 327.568 558.689 327.568C559.305 327.568 559.679 327.92 560.031 328.316L561.219 329.614H561.395V326.6C560.801 326.38 560.141 326.226 559.349 326.226ZM555.037 332.65L554.927 332.76H551.297L551.187 332.65V331.418C551.187 328.91 551.759 327.898 553.057 327.898C553.827 327.898 554.553 328.382 555.125 329.196L555.301 329.438C555.125 330.142 555.037 330.978 555.037 331.946V332.65ZM568.751 342.22C570.005 342.22 571.215 341.67 572.051 340.944L571.633 340.174C571.127 340.438 570.511 340.658 570.005 340.658C569.125 340.658 568.795 340.042 568.795 338.282V334.168H571.721V332.76H568.795V330.142H568.509L564.923 333.882V334.168H566.155L566.265 334.278V339.338C566.265 341.45 567.167 342.22 568.751 342.22ZM582.522 340.592L582.412 340.482V335.004C582.412 333.2 581.312 332.43 579.75 332.43C578.584 332.43 577.682 332.892 576.428 333.706V326.314L576.12 326.16L572.49 327.92V328.184L573.898 329.064V340.482L573.788 340.592H572.798V342H577.528V340.592H576.538L576.428 340.482V334.586C577.11 334.41 577.638 334.322 578.122 334.322C579.376 334.322 579.882 334.806 579.882 336.566V340.482L579.772 340.592H578.782V342H583.512V340.592H582.522ZM586.905 330.692C587.741 330.692 588.423 330.01 588.423 329.152C588.423 328.316 587.741 327.634 586.905 327.634C586.047 327.634 585.365 328.316 585.365 329.152C585.365 330.01 586.047 330.692 586.905 330.692ZM584.617 342H589.347V340.592H588.357L588.247 340.482V332.408L587.961 332.276L584.309 334.014V334.278L585.717 335.158V340.482L585.607 340.592H584.617V342ZM600.033 340.614L599.923 340.482V335.004C599.923 333.2 598.823 332.43 597.261 332.43C596.073 332.43 595.149 332.892 593.851 333.75L593.587 332.452L593.301 332.298L590.001 333.992V334.278L591.409 335.136V340.482L591.299 340.592H590.309V342H595.039V340.592H594.049L593.939 340.482V334.586C594.621 334.41 595.149 334.322 595.633 334.322C596.887 334.322 597.393 334.806 597.393 336.566V340.482L597.283 340.592H596.293V342H601.023V340.614H600.033ZM611.784 332.232L609.034 333.266C608.352 332.738 607.45 332.43 606.46 332.43C604.26 332.43 602.346 333.97 602.346 336.192C602.346 337.358 602.874 338.238 603.71 338.788C602.742 339.668 602.192 340.614 602.192 341.516C602.192 342.154 602.456 342.638 602.984 342.968C601.95 343.672 601.4 344.442 601.4 345.278C601.4 346.51 602.588 347.214 604.854 347.214C608.396 347.214 611.036 345.652 611.036 343.21C611.036 341.714 609.958 341.032 607.956 341.032H605.844C604.458 341.032 604.106 340.68 604.106 340.13C604.106 339.8 604.238 339.47 604.458 339.162C604.942 339.338 605.492 339.426 606.086 339.426C608.286 339.426 610.244 338.106 610.244 335.862C610.244 335.136 610.046 334.52 609.694 333.992L611.542 334.564L611.85 334.52V332.298L611.784 332.232ZM606.328 338.348C605.404 338.348 604.92 337.38 604.92 335.818C604.92 334.212 605.514 333.486 606.24 333.486C607.12 333.486 607.692 334.498 607.692 336.104C607.692 337.732 607.076 338.348 606.328 338.348ZM605.074 343.408H607.23C608.154 343.408 608.814 343.496 608.814 344.178C608.814 345.234 607.23 345.85 605.536 345.85C604.172 345.85 603.446 345.41 603.446 344.442C603.446 344.024 603.556 343.672 603.798 343.276C604.15 343.364 604.568 343.408 605.074 343.408ZM616.259 342.22C618.525 342.22 619.845 341.142 619.845 339.36C619.845 338.062 619.053 337.27 617.359 336.412C616.171 335.818 615.247 335.378 615.247 334.564C615.247 334.102 615.599 333.706 616.281 333.706C616.809 333.706 617.271 333.97 617.667 334.344L618.943 335.862H619.229V332.892C618.393 332.584 617.601 332.43 616.633 332.43C614.433 332.43 612.981 333.42 612.981 335.092C612.981 336.434 613.663 337.204 615.335 338.172C616.435 338.81 617.579 339.096 617.579 340.02C617.579 340.526 617.249 340.944 616.435 340.944C615.709 340.944 615.005 340.504 614.455 339.822L613.245 338.326H612.959V341.494C613.795 341.89 615.159 342.22 616.259 342.22ZM623.125 342.33C624.049 342.33 624.775 341.582 624.775 340.68C624.775 339.778 624.049 339.03 623.125 339.03C622.223 339.03 621.475 339.778 621.475 340.68C621.475 341.582 622.223 342.33 623.125 342.33Z" fill="white"/>
<path d="M660.71 342.33C663.944 342.33 665.66 340.438 665.66 338.04C665.66 336.258 664.736 335.092 661.766 333.53C659.434 332.298 658.818 331.66 658.818 330.648C658.818 329.526 659.654 328.844 660.71 328.844C661.788 328.844 662.382 329.196 662.866 329.724L664.516 332.43H664.846V328.294C663.812 327.722 662.558 327.37 661.282 327.37C658.532 327.37 656.508 328.932 656.508 331.462C656.508 333.508 657.806 334.806 660.16 335.972C662.734 337.248 663.35 337.996 663.35 338.986C663.35 340.196 662.492 340.834 661.128 340.834C660.05 340.834 659.126 340.438 658.114 339.338L656.838 336.874H656.464V341.186C657.718 341.89 659.17 342.33 660.71 342.33ZM671.813 342.22C673.265 342.22 674.431 341.692 675.267 340.944L674.849 340.174C674.189 340.548 673.639 340.702 672.935 340.702C671.417 340.702 669.987 339.47 669.987 336.72C669.987 334.762 670.581 333.706 671.703 333.706C672.165 333.706 672.517 333.882 672.913 334.212L674.585 336.456H674.871V332.914C674.035 332.606 673.155 332.43 672.297 332.43C669.217 332.43 667.303 334.674 667.303 337.556C667.303 340.372 669.063 342.22 671.813 342.22ZM680.596 335.004C681.586 335.004 682.488 335.136 683.346 335.378V332.54C683.126 332.452 682.95 332.43 682.708 332.43C681.872 332.43 680.882 333.068 679.804 334.058L679.518 332.474L679.232 332.32L675.932 334.014V334.3L677.34 335.158V340.482L677.23 340.592H676.24V342H681.3V340.592H679.98L679.87 340.482V335.048C680.112 335.026 680.354 335.004 680.596 335.004ZM691.69 340.592L691.58 340.482V336.192C691.58 333.75 690.656 332.43 688.346 332.43C686.85 332.43 685.618 332.98 684.54 334.058L684.958 334.894C685.75 334.388 686.498 334.08 687.268 334.08C688.544 334.08 689.05 334.85 689.05 336.346V336.742C685.244 337.138 684.144 338.414 684.144 340.064C684.144 341.692 685.266 342.242 686.322 342.242C687.224 342.242 688.148 341.846 689.05 341.23V342H692.68V340.592H691.69ZM687.862 340.658C687.114 340.658 686.586 340.284 686.608 339.448C686.63 338.458 687.334 337.974 689.05 337.82V340.46C688.632 340.57 688.236 340.658 687.862 340.658ZM697.028 342.22C698.282 342.22 699.492 341.67 700.328 340.944L699.91 340.174C699.404 340.438 698.788 340.658 698.282 340.658C697.402 340.658 697.072 340.042 697.072 338.282V334.168H699.998V332.76H697.072V330.142H696.786L693.2 333.882V334.168H694.432L694.542 334.278V339.338C694.542 341.45 695.444 342.22 697.028 342.22ZM705.457 342.22C706.909 342.22 708.075 341.692 708.911 340.944L708.493 340.174C707.833 340.548 707.283 340.702 706.579 340.702C705.061 340.702 703.631 339.47 703.631 336.72C703.631 334.762 704.225 333.706 705.347 333.706C705.809 333.706 706.161 333.882 706.557 334.212L708.229 336.456H708.515V332.914C707.679 332.606 706.799 332.43 705.941 332.43C702.861 332.43 700.947 334.674 700.947 337.556C700.947 340.372 702.707 342.22 705.457 342.22ZM719.542 340.592L719.432 340.482V335.004C719.432 333.2 718.332 332.43 716.77 332.43C715.604 332.43 714.702 332.892 713.448 333.706V326.314L713.14 326.16L709.51 327.92V328.184L710.918 329.064V340.482L710.808 340.592H709.818V342H714.548V340.592H713.558L713.448 340.482V334.586C714.13 334.41 714.658 334.322 715.142 334.322C716.396 334.322 716.902 334.806 716.902 336.566V340.482L716.792 340.592H715.802V342H720.532V340.592H719.542ZM730.315 342.22C731.767 342.22 732.933 341.692 733.769 340.944L733.351 340.174C732.691 340.548 732.141 340.702 731.437 340.702C729.919 340.702 728.489 339.47 728.489 336.72C728.489 334.762 729.083 333.706 730.205 333.706C730.667 333.706 731.019 333.882 731.415 334.212L733.087 336.456H733.373V332.914C732.537 332.606 731.657 332.43 730.799 332.43C727.719 332.43 725.805 334.674 725.805 337.556C725.805 340.372 727.565 342.22 730.315 342.22ZM739.296 342.22C742.09 342.22 744.092 340.196 744.092 337.204C744.092 334.212 742.134 332.43 739.56 332.43C736.7 332.43 734.764 334.652 734.764 337.556C734.764 340.372 736.612 342.22 739.296 342.22ZM739.736 340.922C738.416 340.922 737.448 339.162 737.448 336.654C737.448 334.85 738.086 333.794 739.12 333.794C740.44 333.794 741.408 335.554 741.408 338.062C741.408 339.866 740.77 340.922 739.736 340.922ZM754.77 340.592L754.682 340.482V332.43L754.374 332.276L750.744 334.036V334.3L752.152 335.18V340.064C751.69 340.196 751.184 340.284 750.634 340.284C749.424 340.284 748.918 339.8 748.918 338.238V332.584L748.61 332.43L744.98 334.19V334.454L746.388 335.334V339.624C746.388 341.296 747.268 342.22 748.918 342.22C750.194 342.22 751.074 341.582 752.152 340.68V342H755.76V340.592H754.77ZM761.467 342.22C762.919 342.22 764.085 341.692 764.921 340.944L764.503 340.174C763.843 340.548 763.293 340.702 762.589 340.702C761.071 340.702 759.641 339.47 759.641 336.72C759.641 334.762 760.235 333.706 761.357 333.706C761.819 333.706 762.171 333.882 762.567 334.212L764.239 336.456H764.525V332.914C763.689 332.606 762.809 332.43 761.951 332.43C758.871 332.43 756.957 334.674 756.957 337.556C756.957 340.372 758.717 342.22 761.467 342.22ZM775.552 340.592L775.442 340.482V335.004C775.442 333.2 774.342 332.43 772.78 332.43C771.614 332.43 770.712 332.892 769.458 333.706V326.314L769.15 326.16L765.52 327.92V328.184L766.928 329.064V340.482L766.818 340.592H765.828V342H770.558V340.592H769.568L769.458 340.482V334.586C770.14 334.41 770.668 334.322 771.152 334.322C772.406 334.322 772.912 334.806 772.912 336.566V340.482L772.802 340.592H771.812V342H776.542V340.592H775.552ZM779.825 342.33C780.749 342.33 781.475 341.582 781.475 340.68C781.475 339.778 780.749 339.03 779.825 339.03C778.923 339.03 778.175 339.778 778.175 340.68C778.175 341.582 778.923 342.33 779.825 342.33Z" fill="#FDCE00"/>
<path d="M813.343 342H824.123V337.556H823.705L822.033 340.46H817.853V329.35L819.943 328.03V327.7H813.123V328.03L815.103 329.35V340.416L814.993 340.526H813.343V342ZM831.45 340.724C829.646 340.724 828.634 339.426 828.48 337.314H833.936C834.024 336.83 834.046 336.522 834.046 336.126C834.046 333.948 832.66 332.43 830.416 332.43C827.71 332.43 825.774 334.652 825.774 337.49C825.774 340.372 827.798 342.22 830.416 342.22C831.802 342.22 832.968 341.714 833.958 340.944L833.54 340.174C832.77 340.548 832.11 340.724 831.45 340.724ZM830.108 333.706C831.01 333.706 831.56 334.322 831.604 336.17H828.48C828.568 334.564 829.14 333.706 830.108 333.706ZM848.361 340.174C847.855 340.438 847.239 340.658 846.733 340.658C845.853 340.658 845.523 340.042 845.523 338.282V334.168H848.449V332.76H845.523V330.142H845.237L842.795 332.76H838.747V330.142H838.461L834.875 333.882V334.168H836.107L836.217 334.278V339.338C836.217 341.45 837.119 342.22 838.703 342.22C839.957 342.22 841.167 341.67 842.003 340.944L841.585 340.174C841.079 340.438 840.463 340.658 839.957 340.658C839.077 340.658 838.747 340.042 838.747 338.282V334.168H842.883L842.993 334.278V339.338C842.993 341.45 843.895 342.22 845.479 342.22C846.733 342.22 847.943 341.67 848.779 340.944L848.361 340.174ZM858.972 340.592L858.884 340.482V332.43L858.576 332.276L854.946 334.036V334.3L856.354 335.18V340.064C855.892 340.196 855.386 340.284 854.836 340.284C853.626 340.284 853.12 339.8 853.12 338.238V332.584L852.812 332.43L849.182 334.19V334.454L850.59 335.334V339.624C850.59 341.296 851.47 342.22 853.12 342.22C854.396 342.22 855.276 341.582 856.354 340.68V342H859.962V340.592H858.972ZM865.669 342.22C867.121 342.22 868.287 341.692 869.123 340.944L868.705 340.174C868.045 340.548 867.495 340.702 866.791 340.702C865.273 340.702 863.843 339.47 863.843 336.72C863.843 334.762 864.437 333.706 865.559 333.706C866.021 333.706 866.373 333.882 866.769 334.212L868.441 336.456H868.727V332.914C867.891 332.606 867.011 332.43 866.153 332.43C863.073 332.43 861.159 334.674 861.159 337.556C861.159 340.372 862.919 342.22 865.669 342.22ZM875.794 340.724C873.99 340.724 872.978 339.426 872.824 337.314H878.28C878.368 336.83 878.39 336.522 878.39 336.126C878.39 333.948 877.004 332.43 874.76 332.43C872.054 332.43 870.118 334.652 870.118 337.49C870.118 340.372 872.142 342.22 874.76 342.22C876.146 342.22 877.312 341.714 878.302 340.944L877.884 340.174C877.114 340.548 876.454 340.724 875.794 340.724ZM874.452 333.706C875.354 333.706 875.904 334.322 875.948 336.17H872.824C872.912 334.564 873.484 333.706 874.452 333.706ZM881.793 342.33C882.717 342.33 883.443 341.582 883.443 340.68C883.443 339.778 882.717 339.03 881.793 339.03C880.891 339.03 880.143 339.778 880.143 340.68C880.143 341.582 880.891 342.33 881.793 342.33Z" fill="white"/>
<path d="M928.001 340.526L927.891 340.416L922.413 327.7H921.247L915.989 340.416L915.879 340.526H914.669V342H919.135V340.526H917.815L917.705 340.416L918.607 338.084H923.909L924.899 340.416L924.789 340.526H923.469V342H929.167V340.526H928.001ZM919.179 336.588L921.093 331.66H921.203L923.293 336.588H919.179ZM939.743 340.614L939.633 340.482V335.004C939.633 333.2 938.533 332.43 936.971 332.43C935.783 332.43 934.859 332.892 933.561 333.75L933.297 332.452L933.011 332.298L929.711 333.992V334.278L931.119 335.136V340.482L931.009 340.592H930.019V342H934.749V340.592H933.759L933.649 340.482V334.586C934.331 334.41 934.859 334.322 935.343 334.322C936.597 334.322 937.103 334.806 937.103 336.566V340.482L936.993 340.592H936.003V342H940.733V340.614H939.743ZM951.516 340.614L951.406 340.482V335.004C951.406 333.2 950.306 332.43 948.744 332.43C947.556 332.43 946.632 332.892 945.334 333.75L945.07 332.452L944.784 332.298L941.484 333.992V334.278L942.892 335.136V340.482L942.782 340.592H941.792V342H946.522V340.592H945.532L945.422 340.482V334.586C946.104 334.41 946.632 334.322 947.116 334.322C948.37 334.322 948.876 334.806 948.876 336.566V340.482L948.766 340.592H947.776V342H952.506V340.614H951.516ZM958.12 342.22C960.914 342.22 962.916 340.196 962.916 337.204C962.916 334.212 960.958 332.43 958.384 332.43C955.524 332.43 953.588 334.652 953.588 337.556C953.588 340.372 955.436 342.22 958.12 342.22ZM958.56 340.922C957.24 340.922 956.272 339.162 956.272 336.654C956.272 334.85 956.91 333.794 957.944 333.794C959.264 333.794 960.232 335.554 960.232 338.062C960.232 339.866 959.594 340.922 958.56 340.922ZM966.65 347.39L969.158 342.484L973.008 334.278L974.416 333.046V332.76H970.258V333.068L971.468 334.278L969.4 338.964H969.268L967.222 334.278L968.454 333.046V332.76H963.042V333.068L964.472 334.278L968.19 342.176L963.702 345.982V346.18L966.65 347.39ZM991.631 340.526L991.455 340.416L987.627 335.554C989.453 334.894 990.773 333.442 990.773 331.528C990.773 329.108 988.749 327.7 984.437 327.7H979.157V328.03L981.137 329.35V340.416L981.027 340.526H979.377V342H985.647V340.526H983.997L983.887 340.416V335.95H984.855L989.409 342H993.281V340.526H991.631ZM983.887 329.24H985.031C986.747 329.24 987.891 329.966 987.891 331.594C987.891 333.376 986.527 334.41 984.547 334.41H983.887V329.24ZM999.504 340.724C997.7 340.724 996.688 339.426 996.534 337.314H1001.99C1002.08 336.83 1002.1 336.522 1002.1 336.126C1002.1 333.948 1000.71 332.43 998.47 332.43C995.764 332.43 993.828 334.652 993.828 337.49C993.828 340.372 995.852 342.22 998.47 342.22C999.856 342.22 1001.02 341.714 1002.01 340.944L1001.59 340.174C1000.82 340.548 1000.16 340.724 999.504 340.724ZM998.162 333.706C999.064 333.706 999.614 334.322 999.658 336.17H996.534C996.622 334.564 997.194 333.706 998.162 333.706ZM1012.39 340.592C1012.39 340.592 1010.89 338.766 1009.42 337.006L1012.19 334.168L1013.55 332.936V332.76H1009.22V332.958L1010.47 334.168L1008.65 336.06C1008.01 335.268 1007.09 334.168 1007.09 334.168L1008.36 332.936V332.76H1002.8V332.958L1004.23 334.168C1004.23 334.168 1005.61 335.84 1007 337.49L1004.31 340.46L1004.16 340.592H1003.04V342H1007.17V340.592H1006.14L1006.03 340.504L1007.86 338.502C1008.56 339.338 1009.48 340.46 1009.48 340.46L1009.35 340.592H1008.47V342H1013.69V340.592H1012.39ZM1016.7 342.33C1017.62 342.33 1018.35 341.582 1018.35 340.68C1018.35 339.778 1017.62 339.03 1016.7 339.03C1015.79 339.03 1015.05 339.778 1015.05 340.68C1015.05 341.582 1015.79 342.33 1016.7 342.33Z" fill="#FDCE00"/>
<path d="M1 0V287H1015" stroke="white" stroke-width="2"/>
<path d="M1 155.217C1 155.217 35.1447 128.178 102.251 114.659C169.356 101.139 140.987 3 207.001 3C273.016 3 235.371 120.668 330.302 114.659C416.503 109.203 342.85 232.827 418.685 242.341C494.52 251.855 462.877 155.217 549.078 155.217C635.279 155.217 615.638 27.535 688.2 27.535C715.824 27.535 785.312 219.308 839.324 180.753C893.336 142.198 904.794 71.097 951.168 71.097C997.542 71.097 1015 155.217 1015 155.217" stroke="white" stroke-width="2"/>
</svg>
