<svg width="459" height="245" viewBox="0 0 459 245" fill="none" xmlns="http://www.w3.org/2000/svg">
<rect width="459" height="245" fill="#2D2F3A"/>
<circle cx="65.5" cy="75.5" r="46.5" fill="#E8EAEE"/>
<rect x="22" y="168" width="107" height="17" fill="#E8EAEE"/>
<rect x="22" y="195" width="107" height="17" fill="#E8EAEE"/>
<rect x="176" y="29" width="107" height="17" fill="#E8EAEE"/>
<rect x="176" y="56" width="107" height="17" fill="#E8EAEE"/>
<rect x="176" y="83" width="107" height="17" fill="#E8EAEE"/>
<rect x="176" y="110" width="107" height="17" fill="#E8EAEE"/>
<rect x="176" y="137" width="107" height="17" fill="#E8EAEE"/>
<rect x="176" y="164" width="107" height="48" fill="#E8EAEE"/>
<rect x="311" y="29" width="107" height="71" fill="#E8EAEE"/>
<rect x="311" y="110" width="107" height="17" fill="#E8EAEE"/>
<rect x="311" y="137" width="107" height="17" fill="#E8EAEE"/>
<rect x="311" y="164" width="107" height="17" fill="#E8EAEE"/>
<rect x="311" y="191" width="107" height="17" fill="#E8EAEE"/>
<path d="M23.3951 154V139.455H29.1337C30.2369 139.455 31.1768 139.665 31.9533 140.087C32.7298 140.503 33.3217 141.083 33.7289 141.827C34.1408 142.565 34.3468 143.418 34.3468 144.384C34.3468 145.349 34.1384 146.202 33.7218 146.94C33.3051 147.679 32.7014 148.254 31.9107 148.666C31.1247 149.078 30.173 149.284 29.0556 149.284H25.3979V146.82H28.5584C29.1503 146.82 29.638 146.718 30.0215 146.514C30.4097 146.306 30.6986 146.019 30.888 145.655C31.0821 145.286 31.1792 144.862 31.1792 144.384C31.1792 143.901 31.0821 143.479 30.888 143.119C30.6986 142.755 30.4097 142.473 30.0215 142.274C29.6332 142.071 29.1408 141.969 28.5442 141.969H26.4703V154H23.3951ZM39.313 139.455V154H36.2875V139.455H39.313ZM44.8475 154.206C44.1515 154.206 43.5312 154.085 42.9867 153.844C42.4422 153.598 42.0113 153.235 41.6941 152.757C41.3816 152.274 41.2253 151.673 41.2253 150.953C41.2253 150.347 41.3366 149.838 41.5591 149.426C41.7817 149.014 42.0847 148.683 42.4682 148.432C42.8517 148.181 43.2873 147.991 43.775 147.864C44.2675 147.736 44.7836 147.646 45.3233 147.594C45.9578 147.527 46.4692 147.466 46.8574 147.409C47.2457 147.348 47.5274 147.258 47.7026 147.139C47.8778 147.021 47.9654 146.846 47.9654 146.614V146.571C47.9654 146.121 47.8233 145.773 47.5392 145.527C47.2599 145.281 46.8622 145.158 46.3461 145.158C45.8016 145.158 45.3683 145.278 45.0463 145.52C44.7244 145.757 44.5113 146.055 44.4071 146.415L41.6088 146.188C41.7509 145.525 42.0302 144.952 42.4469 144.469C42.8636 143.981 43.401 143.607 44.0591 143.347C44.722 143.081 45.4891 142.949 46.3603 142.949C46.9663 142.949 47.5463 143.02 48.1003 143.162C48.659 143.304 49.1538 143.524 49.5847 143.822C50.0203 144.121 50.3636 144.504 50.6145 144.973C50.8655 145.437 50.9909 145.993 50.9909 146.642V154H48.1216V152.487H48.0364C47.8612 152.828 47.6268 153.129 47.3333 153.389C47.0397 153.645 46.687 153.846 46.275 153.993C45.8631 154.135 45.3873 154.206 44.8475 154.206ZM45.714 152.118C46.159 152.118 46.552 152.03 46.8929 151.855C47.2338 151.675 47.5014 151.434 47.6955 151.131C47.8896 150.828 47.9867 150.484 47.9867 150.101V148.943C47.892 149.005 47.7618 149.062 47.5961 149.114C47.4351 149.161 47.2528 149.206 47.0492 149.249C46.8456 149.286 46.642 149.322 46.4384 149.355C46.2348 149.384 46.0501 149.41 45.8844 149.433C45.5293 149.485 45.2192 149.568 44.954 149.682C44.6889 149.795 44.4829 149.949 44.3361 150.143C44.1893 150.333 44.1159 150.57 44.1159 150.854C44.1159 151.266 44.2651 151.58 44.5634 151.798C44.8664 152.011 45.2499 152.118 45.714 152.118ZM58.2672 154.213C57.1498 154.213 56.1886 153.976 55.3837 153.503C54.5835 153.025 53.968 152.362 53.5371 151.514C53.111 150.667 52.8979 149.691 52.8979 148.588C52.8979 147.471 53.1133 146.491 53.5442 145.648C53.9798 144.8 54.5977 144.14 55.3979 143.666C56.1981 143.188 57.1498 142.949 58.253 142.949C59.2047 142.949 60.0381 143.122 60.753 143.467C61.468 143.813 62.0338 144.298 62.4505 144.923C62.8671 145.548 63.0968 146.282 63.1394 147.125H60.2843C60.2038 146.58 59.9907 146.143 59.6451 145.811C59.3042 145.475 58.8567 145.307 58.3027 145.307C57.834 145.307 57.4244 145.435 57.074 145.69C56.7284 145.941 56.4585 146.308 56.2644 146.791C56.0703 147.274 55.9732 147.859 55.9732 148.545C55.9732 149.241 56.0679 149.833 56.2573 150.321C56.4514 150.809 56.7237 151.18 57.074 151.436C57.4244 151.692 57.834 151.82 58.3027 151.82C58.6484 151.82 58.9585 151.749 59.2331 151.607C59.5125 151.464 59.7421 151.259 59.9221 150.989C60.1067 150.714 60.2275 150.385 60.2843 150.001H63.1394C63.092 150.835 62.8648 151.569 62.4576 152.203C62.0551 152.833 61.4988 153.325 60.7885 153.68C60.0783 154.036 59.2379 154.213 58.2672 154.213ZM70.0481 154.213C68.926 154.213 67.96 153.986 67.1504 153.531C66.3455 153.072 65.7252 152.423 65.2896 151.585C64.854 150.742 64.6362 149.746 64.6362 148.595C64.6362 147.473 64.854 146.488 65.2896 145.641C65.7252 144.793 66.3384 144.133 67.1291 143.659C67.9245 143.186 68.8573 142.949 69.9274 142.949C70.6471 142.949 71.3171 143.065 71.9373 143.297C72.5623 143.524 73.1068 143.867 73.5708 144.327C74.0396 144.786 74.4042 145.364 74.6646 146.06C74.925 146.751 75.0552 147.561 75.0552 148.489V149.32H65.8436V147.445H72.2072C72.2072 147.009 72.1125 146.623 71.9231 146.287C71.7337 145.951 71.4709 145.688 71.1348 145.499C70.8033 145.304 70.4174 145.207 69.9771 145.207C69.5178 145.207 69.1106 145.314 68.7555 145.527C68.4051 145.735 68.1305 146.017 67.9316 146.372C67.7328 146.723 67.631 147.113 67.6262 147.544V149.327C67.6262 149.866 67.7257 150.333 67.9245 150.726C68.1281 151.119 68.4146 151.422 68.7839 151.635C69.1532 151.848 69.5912 151.955 70.0978 151.955C70.434 151.955 70.7418 151.907 71.0211 151.812C71.3005 151.718 71.5396 151.576 71.7385 151.386C71.9373 151.197 72.0888 150.965 72.193 150.69L74.9913 150.875C74.8493 151.547 74.5581 152.134 74.1177 152.636C73.6821 153.134 73.1187 153.522 72.4274 153.801C71.7408 154.076 70.9477 154.213 70.0481 154.213ZM80.0552 147.693V154H77.0297V139.455H79.97V145.016H80.0978C80.344 144.372 80.7418 143.867 81.291 143.503C81.8403 143.134 82.5292 142.949 83.3578 142.949C84.1154 142.949 84.7759 143.115 85.3393 143.446C85.9075 143.773 86.3478 144.244 86.6603 144.859C86.9776 145.47 87.1338 146.202 87.1291 147.054V154H84.1035V147.594C84.1083 146.921 83.9378 146.398 83.5922 146.024C83.2512 145.65 82.773 145.463 82.1575 145.463C81.7456 145.463 81.381 145.551 81.0637 145.726C80.7512 145.901 80.505 146.157 80.3251 146.493C80.1499 146.824 80.06 147.224 80.0552 147.693ZM94.4391 154.213C93.3359 154.213 92.3818 153.979 91.5769 153.51C90.7767 153.036 90.1588 152.378 89.7232 151.536C89.2876 150.688 89.0698 149.705 89.0698 148.588C89.0698 147.461 89.2876 146.476 89.7232 145.634C90.1588 144.786 90.7767 144.128 91.5769 143.659C92.3818 143.186 93.3359 142.949 94.4391 142.949C95.5423 142.949 96.494 143.186 97.2942 143.659C98.0991 144.128 98.7194 144.786 99.155 145.634C99.5906 146.476 99.8084 147.461 99.8084 148.588C99.8084 149.705 99.5906 150.688 99.155 151.536C98.7194 152.378 98.0991 153.036 97.2942 153.51C96.494 153.979 95.5423 154.213 94.4391 154.213ZM94.4533 151.869C94.9552 151.869 95.3742 151.727 95.7104 151.443C96.0466 151.154 96.2999 150.761 96.4703 150.264C96.6455 149.767 96.7331 149.201 96.7331 148.567C96.7331 147.932 96.6455 147.366 96.4703 146.869C96.2999 146.372 96.0466 145.979 95.7104 145.69C95.3742 145.402 94.9552 145.257 94.4533 145.257C93.9467 145.257 93.5205 145.402 93.1749 145.69C92.834 145.979 92.5759 146.372 92.4007 146.869C92.2303 147.366 92.1451 147.932 92.1451 148.567C92.1451 149.201 92.2303 149.767 92.4007 150.264C92.5759 150.761 92.834 151.154 93.1749 151.443C93.5205 151.727 93.9467 151.869 94.4533 151.869ZM104.801 139.455V154H101.776V139.455H104.801ZM111.245 154.178C110.416 154.178 109.666 153.964 108.993 153.538C108.326 153.107 107.796 152.475 107.403 151.642C107.014 150.804 106.82 149.777 106.82 148.56C106.82 147.31 107.021 146.27 107.424 145.442C107.826 144.608 108.361 143.986 109.029 143.574C109.701 143.157 110.438 142.949 111.238 142.949C111.849 142.949 112.358 143.053 112.765 143.261C113.177 143.465 113.508 143.721 113.759 144.028C114.015 144.331 114.209 144.63 114.341 144.923H114.434V139.455H117.452V154H114.469V152.253H114.341C114.199 152.556 113.998 152.857 113.738 153.155C113.482 153.448 113.148 153.692 112.736 153.886C112.329 154.08 111.832 154.178 111.245 154.178ZM112.204 151.77C112.691 151.77 113.103 151.637 113.439 151.372C113.78 151.102 114.041 150.726 114.221 150.243C114.405 149.76 114.498 149.194 114.498 148.545C114.498 147.897 114.408 147.333 114.228 146.855C114.048 146.377 113.787 146.008 113.447 145.747C113.106 145.487 112.691 145.357 112.204 145.357C111.706 145.357 111.287 145.491 110.947 145.761C110.606 146.031 110.348 146.405 110.172 146.884C109.997 147.362 109.91 147.916 109.91 148.545C109.91 149.18 109.997 149.741 110.172 150.229C110.352 150.712 110.61 151.09 110.947 151.365C111.287 151.635 111.706 151.77 112.204 151.77ZM124.911 154.213C123.789 154.213 122.823 153.986 122.014 153.531C121.209 153.072 120.588 152.423 120.153 151.585C119.717 150.742 119.499 149.746 119.499 148.595C119.499 147.473 119.717 146.488 120.153 145.641C120.588 144.793 121.202 144.133 121.992 143.659C122.788 143.186 123.721 142.949 124.791 142.949C125.51 142.949 126.18 143.065 126.801 143.297C127.426 143.524 127.97 143.867 128.434 144.327C128.903 144.786 129.267 145.364 129.528 146.06C129.788 146.751 129.919 147.561 129.919 148.489V149.32H120.707V147.445H127.07C127.07 147.009 126.976 146.623 126.786 146.287C126.597 145.951 126.334 145.688 125.998 145.499C125.667 145.304 125.281 145.207 124.84 145.207C124.381 145.207 123.974 145.314 123.619 145.527C123.268 145.735 122.994 146.017 122.795 146.372C122.596 146.723 122.494 147.113 122.49 147.544V149.327C122.49 149.866 122.589 150.333 122.788 150.726C122.991 151.119 123.278 151.422 123.647 151.635C124.017 151.848 124.454 151.955 124.961 151.955C125.297 151.955 125.605 151.907 125.884 151.812C126.164 151.718 126.403 151.576 126.602 151.386C126.801 151.197 126.952 150.965 127.056 150.69L129.855 150.875C129.713 151.547 129.421 152.134 128.981 152.636C128.545 153.134 127.982 153.522 127.291 153.801C126.604 154.076 125.811 154.213 124.911 154.213ZM131.893 154V143.091H134.826V144.994H134.94C135.139 144.317 135.472 143.806 135.941 143.46C136.41 143.11 136.95 142.935 137.561 142.935C137.712 142.935 137.875 142.944 138.051 142.963C138.226 142.982 138.38 143.008 138.512 143.041V145.726C138.37 145.683 138.174 145.645 137.923 145.612C137.672 145.579 137.442 145.562 137.234 145.562C136.789 145.562 136.391 145.66 136.041 145.854C135.695 146.043 135.42 146.308 135.217 146.649C135.018 146.99 134.919 147.383 134.919 147.828V154H131.893Z" fill="white"/>
</svg>
